<?xml version="1.0" encoding="UTF-8" standalone="no"?>
<!-- Generator: Adobe Illustrator 15.1.0, SVG Export Plug-In . SVG Version: 6.00 Build 0)  -->

<svg
   version="1.1"
   id="Camada_1"
   x="0px"
   y="0px"
   width="81.699997"
   height="87.938004"
   viewBox="0 0 81.699996 87.938004"
   enable-background="new 0 0 214.154 43.938"
   xml:space="preserve"
   sodipodi:docname="crea.svg"
   inkscape:version="1.1.1 (3bf5ae0d25, 2021-09-20)"
   xmlns:inkscape="http://www.inkscape.org/namespaces/inkscape"
   xmlns:sodipodi="http://sodipodi.sourceforge.net/DTD/sodipodi-0.dtd"
   xmlns="http://www.w3.org/2000/svg"
   xmlns:svg="http://www.w3.org/2000/svg"><defs
   id="defs363">
	
</defs><sodipodi:namedview
   id="namedview361"
   pagecolor="#ffffff"
   bordercolor="#999999"
   borderopacity="1"
   inkscape:pageshadow="0"
   inkscape:pageopacity="0"
   inkscape:pagecheckerboard="0"
   showgrid="false"
   inkscape:zoom="5.5894355"
   inkscape:cx="46.60578"
   inkscape:cy="56.266863"
   inkscape:window-width="1366"
   inkscape:window-height="705"
   inkscape:window-x="-8"
   inkscape:window-y="-8"
   inkscape:window-maximized="1"
   inkscape:current-layer="Camada_1"
   width="76.7px"
   height="80.938px" />
<g
   id="g124"
   transform="matrix(2.6506966,0,0,2.6506966,0,-15.839803)"
   style="stroke-width:0.377259">
		
		<g
   id="g122"
   style="stroke-width:0.377259">
			<path
   fill-rule="evenodd"
   clip-rule="evenodd"
   fill="#b69c12"
   d="m 16.228,21.677 -0.19,-0.226 c -0.227,0.289 -0.256,0.609 -0.068,0.926 -0.063,0.322 0,0.547 0.193,0.581 L 16.13,22.7 l 0.128,0.188 c 0.032,0.099 0.064,0.07 0.097,-0.029 0.062,-0.223 -0.032,-0.481 -0.192,-0.734 h 0.128 l 0.032,-0.289 0.512,0.447 c 0.511,0.13 0.927,0.545 0.833,0.96 -0.259,-0.543 -1.409,-1.021 -0.93,-0.158 0.196,0.224 0.452,0.352 0.801,0.381 -0.13,-0.061 -0.192,-0.125 -0.225,-0.223 0.609,0.223 0.928,0.51 0.835,0.863 -0.259,-0.286 -0.451,0.031 -0.226,0.224 0.158,0.032 0.287,0.13 0.35,0.258 0.228,0.448 0.481,0.866 0.834,0.866 -0.031,-0.16 -0.063,-0.262 -0.193,-0.356 C 18.786,25.036 18.69,24.941 18.658,24.78 18.627,24.685 18.564,24.589 18.501,24.558 18.437,24.33 18.371,24.17 18.34,24.107 v -0.095 l -0.16,-0.191 v -0.128 l 0.031,-0.065 c 0.226,0.159 0.385,0.321 0.354,0.674 -0.032,0.095 -0.032,0.159 0.031,0.257 l 0.159,-0.067 c -0.031,-0.095 -0.031,-0.189 0.065,-0.256 l -0.065,-0.128 c -0.128,-0.576 -0.415,-0.863 -0.801,-1.088 -0.095,-0.06 -0.063,-0.13 0.032,-0.13 0.225,-0.061 0.416,0.07 0.578,0.452 0.19,0.096 0.29,0.189 0.256,0.286 0.034,0.159 0.094,0.321 0.191,0.479 0,0.162 0.032,0.289 0.096,0.451 l -0.031,0.284 c 0.063,0.386 0.415,0.322 0.319,-0.063 -0.096,-0.161 -0.096,-0.289 -0.096,-0.384 0.259,0.354 0.353,0.769 0.353,1.312 -0.064,0.704 -0.448,0.736 -0.291,0.254 l 0.099,-0.348 c -0.032,-0.036 -0.128,0.063 -0.256,0.256 l 0.034,0.413 c 0.029,0.512 -0.324,0.512 -0.29,0 l 0.029,-0.606 c -0.029,-0.287 -0.319,-0.222 -0.254,0.065 -0.223,-0.1 -0.384,-0.353 -0.415,-0.801 h -0.035 c -0.191,0.383 -0.191,0.637 0,0.735 l 0.45,0.319 c 0.131,0.128 0.063,0.224 -0.128,0.128 0.382,1.182 -0.8,0.8 -0.705,0.032 -0.095,-0.064 -0.192,-0.096 -0.286,-0.032 0.128,0.096 0.158,0.193 0.128,0.288 -0.418,-0.064 -0.61,-1.022 -0.289,-1.281 -0.16,-0.094 -0.254,-0.189 -0.288,-0.351 -0.033,-0.255 -0.32,-0.384 -0.511,-0.545 0.191,0.256 0.381,0.515 0.575,0.802 0.064,0.191 0.032,0.382 -0.097,0.577 -0.128,0.288 0.033,0.669 0.384,0.958 -0.223,0.287 -1.247,0.352 -0.926,-0.192 0.032,-0.128 0.128,-0.288 0.286,-0.418 l 0.129,-0.348 -0.031,-0.036 c -0.098,0.261 -0.191,0.452 -0.351,0.546 -0.194,0.159 -0.288,0.354 -0.288,0.544 -0.512,0.191 -0.8,0.161 -0.896,-0.035 l 0.256,-0.094 c 0.064,-0.287 0.224,-0.577 0.575,-0.831 0.223,-0.159 0.385,-0.384 0.513,-0.64 -0.29,-0.383 -0.513,-0.737 -0.671,-1.153 -0.098,0.034 -0.131,0.098 -0.098,0.256 0.098,0.226 0.226,0.448 0.353,0.672 0.126,0.288 -0.097,0.576 -0.386,0.612 -0.094,0.188 -0.222,0.287 -0.32,0.319 0,-0.226 0.099,-0.385 0.258,-0.581 0.096,-0.063 0.224,-0.188 0.321,-0.351 l -0.033,-0.125 c -0.447,-0.192 -0.672,-0.833 -0.64,-1.251 l -0.032,-0.316 c -0.066,-0.032 -0.16,0 -0.224,0.094 -0.098,-0.284 -0.162,-0.606 -0.064,-0.989 0.028,-0.162 0.222,-0.448 0.095,-1.09 -0.03,-0.223 0,-0.447 0,-0.576 -0.863,-0.479 0.384,-1.439 0.256,-0.189 0.381,0.19 0.512,0.702 0.64,1.279 z m -0.447,1.853 v 0 l 0.155,0.256 c 0.163,0 0.321,0.034 0.418,0.098 l 0.159,0.192 C 16.29,23.753 16.066,23.596 15.781,23.53 Z m -3.363,-8.895 v 0 c 0.064,0.226 0.096,0.481 0.096,0.803 0.736,0.031 1.44,0.352 2.111,0.99 v 0.321 l 0.063,0.223 c -0.191,-0.03 -0.319,-0.16 -0.256,-0.414 -0.188,0 -0.319,-0.097 -0.319,-0.291 h -0.096 l -0.095,-0.063 -0.067,-0.128 -0.447,-0.063 c -0.095,0 -0.158,-0.032 -0.223,-0.063 l -0.128,-0.098 -0.256,0.032 c -0.193,0.096 -0.256,0 -0.193,-0.192 -0.351,0.064 -0.512,0.288 -0.351,0.736 h 0.097 c 0.094,-0.161 0.254,-0.225 0.447,-0.161 0.126,-0.128 0.287,-0.128 0.478,-0.063 -0.19,0 -0.285,0.128 -0.352,0.29 h 0.161 c 0.225,-0.032 0.385,-0.032 0.48,0.064 l -0.128,0.063 c 0,0.093 0,0.19 0.032,0.287 0.063,0.093 0.159,0.127 0.256,0.127 0.063,-0.034 0.126,-0.063 0.225,-0.094 0.063,0 0.096,0.06 0,0.06 -0.192,0 -0.257,0.195 -0.065,0.225 0.129,0 0.225,-0.029 0.32,-0.126 l 0.098,0.16 c 0.095,0.031 0.19,0.096 0.254,0.159 0.1,0.064 0.064,0.162 -0.034,0.097 l -0.188,-0.097 c -0.225,-0.03 -0.35,0.162 -0.094,0.353 0.094,0.064 0.063,0.16 -0.035,0.225 0.066,0.096 0.192,0.126 0.317,0.096 l 0.195,-0.032 c 0.193,0 0.255,0.256 0.063,0.157 -0.125,-0.029 -0.191,0.099 -0.097,0.194 0.067,0.032 0.192,0.066 0.354,0.066 0.158,0.126 0.191,0.315 0.064,0.478 -0.035,-0.192 -0.099,-0.318 -0.192,-0.419 -0.097,-0.093 -0.255,-0.059 -0.354,0.035 l 0.033,0.032 0.066,0.061 c 0.125,0.099 0.221,0.229 0.191,0.39 v 0.063 l 0.157,0.126 0.16,0.13 0.065,0.064 c 0.028,0 0.095,0.124 0.158,0.222 h 0.13 v -0.098 l -0.13,-0.188 -0.03,-0.034 c -0.033,-0.096 0.094,-0.158 0.128,-0.063 0,0.127 0.032,0.188 0.125,0.188 0.098,-0.027 0.132,-0.027 0.132,0.036 -0.064,0.286 0.034,0.8 0.255,1.023 0,-0.256 0.035,-0.576 0.226,-0.865 -0.098,-0.098 -0.226,-0.416 -0.098,-0.605 l -0.064,-0.099 -0.159,0.032 -0.065,0.193 c -0.03,-0.127 -0.094,-0.226 -0.158,-0.321 -0.034,-0.128 0,-0.353 0.099,-0.382 l -0.068,-0.034 c -0.19,-0.159 -0.223,-0.256 -0.03,-0.321 l -0.128,-0.158 c -0.162,-0.099 -0.32,-0.192 -0.482,-0.32 -0.127,-0.096 -0.191,-0.225 -0.191,-0.353 0.064,0.098 0.162,0.192 0.288,0.29 v -0.128 c 0.032,0.03 0.13,0.03 0.224,0.03 -0.094,-0.128 -0.158,-0.258 -0.285,-0.354 -0.162,-0.157 -0.256,-0.281 -0.289,-0.38 l 0.033,-0.128 c 0.541,0.604 1.023,1.343 1.406,2.172 0.097,-0.129 0.223,-0.189 0.416,-0.222 -0.705,-2.144 -2.624,-3.936 -4.256,-3.936 z m 5.343,7.075 v 0 c 0.128,-0.386 0.063,-0.578 -0.128,-0.641 -0.158,-0.1 -0.416,0.194 -0.226,0.353 0.034,-0.098 0.034,-0.098 0.13,-0.128 0.159,0.03 0.129,0.254 0.129,0.384 -1.056,0.063 -1.312,-1.761 -1.28,-1.857 -0.48,0.896 0.224,2.271 0.895,2.434 0.095,-0.738 0.799,-0.482 0.671,-0.129 -0.063,0.253 -0.35,0.188 -0.35,0 -0.065,0.03 -0.065,0.061 -0.099,0.158 0.548,0.801 0.867,-0.513 0.258,-0.574 z m -4.063,-7.846 v 0 c 3.807,-1.438 7.107,2.052 5.345,5.061 v -0.032 l 0.096,-0.289 0.032,-0.319 v -0.288 l -0.032,-0.32 -0.063,-0.32 -0.064,-0.289 -0.098,-0.287 -0.128,-0.318 -0.159,-0.258 -0.19,-0.287 -0.194,-0.255 -0.224,-0.256 -0.256,-0.225 -0.257,-0.193 -0.287,-0.193 -0.285,-0.159 -0.354,-0.128 -0.32,-0.097 -0.352,-0.063 -0.384,-0.031 h -0.386 l -0.415,0.031 -0.415,0.097 -0.418,0.125 c 0.033,-0.096 -0.034,-0.415 -0.192,-0.707 z m 3.039,5.154 v 0 c -0.126,0 -0.223,0.065 -0.223,0.193 0,0.127 0.097,0.226 0.223,0.226 0.098,0 0.196,-0.099 0.196,-0.226 -0.001,-0.127 -0.099,-0.193 -0.196,-0.193 z m 0,-0.256 v 0 c -0.256,0 -0.446,0.192 -0.446,0.449 0,0.253 0.19,0.447 0.446,0.447 0.225,0 0.417,-0.194 0.417,-0.447 0,-0.256 -0.192,-0.449 -0.417,-0.449 z m 0.195,-0.159 v 0 c 0.256,0.096 0.413,0.321 0.413,0.608 0,0.161 -0.032,0.289 -0.128,0.417 l 0.064,0.319 0.031,0.353 0.032,0.256 c 3.423,-1.473 0.962,-7.233 -3.422,-5.763 l 0.159,0.066 0.193,0.127 0.222,0.129 0.191,0.161 0.192,0.16 0.191,0.158 0.162,0.16 0.192,0.193 0.188,0.22 0.166,0.193 0.155,0.227 0.163,0.223 0.158,0.255 0.129,0.258 0.127,0.257 0.129,0.255 0.128,0.286 0.093,0.289 z m 0.061,1.184 v 0 c -0.093,0.065 -0.159,0.065 -0.256,0.065 h -0.126 c 0.063,0.288 0.126,0.608 0.191,0.93 l 0.319,-0.133 C 17.09,20.364 17.055,20.076 16.993,19.787 Z m -3.679,4.255 v 0 c -2.785,1.987 1.442,2.274 2.143,-0.094 0.066,-0.352 -0.541,-1.06 -0.575,-1.57 0,-0.351 0.096,-0.637 0.162,-0.956 -0.034,-0.098 -0.034,-0.158 -0.128,-0.227 -0.514,0.515 -1.026,0.738 -1.729,0.832 0.16,0.642 0.606,1.537 0.288,2.143 L 13.379,24.012 Z M 12.768,13.323 v 0 c 0.353,0.063 0.706,0.191 0.802,0.319 l 0.032,0.033 c 0.063,-0.127 0.16,-0.319 0.128,-0.446 l -0.032,-0.099 0.064,-0.03 0.03,0.095 c 0.063,0.128 0.258,0.226 0.384,0.289 0.068,-0.128 0.193,-0.289 0.162,-0.447 l -0.031,-0.066 0.095,-0.031 0.031,0.063 v 0.034 c 0.033,0.126 0.192,0.256 0.323,0.319 0.096,-0.098 0.253,-0.256 0.221,-0.417 v -0.095 h 0.096 v 0.063 c 0,0.159 0.19,0.288 0.29,0.386 0.128,-0.098 0.253,-0.227 0.253,-0.386 l 0.033,-0.097 h 0.064 v 0.097 c 0,0.159 0.162,0.288 0.256,0.416 0.131,-0.094 0.289,-0.223 0.321,-0.384 v -0.063 h 0.097 v 0.095 c -0.032,0.16 0.094,0.322 0.191,0.45 0.128,-0.064 0.322,-0.162 0.354,-0.32 l 0.029,-0.098 0.094,0.034 -0.031,0.094 c -0.031,0.128 0.065,0.32 0.13,0.448 0.159,-0.03 0.351,-0.095 0.415,-0.256 l 0.034,-0.064 0.063,0.034 -0.033,0.063 v 0.03 c -0.064,0.128 0.033,0.32 0.063,0.478 h 0.034 c 0.127,-0.029 0.319,-0.061 0.417,-0.188 l 0.062,-0.063 0.063,0.03 -0.063,0.064 c -0.062,0.128 -0.031,0.353 0,0.479 v 0.032 c 0.16,-0.032 0.354,-0.032 0.479,-0.124 l 0.033,-0.065 0.063,0.065 -0.031,0.031 v 0.031 c -0.128,0.095 -0.097,0.319 -0.097,0.479 0.162,0 0.354,0.033 0.481,-0.065 l 0.064,-0.063 0.063,0.097 -0.063,0.031 c -0.128,0.098 -0.128,0.321 -0.16,0.481 0.16,0.034 0.352,0.098 0.479,0 l 0.064,-0.03 0.064,0.095 -0.094,0.033 c -0.131,0.063 -0.163,0.289 -0.227,0.414 0.159,0.063 0.32,0.161 0.479,0.128 l 0.063,-0.032 0.033,0.065 -0.064,0.03 c -0.128,0.064 -0.224,0.256 -0.285,0.384 v 0.033 c 0.125,0.065 0.285,0.191 0.444,0.159 l 0.097,-0.033 v 0.099 l -0.064,0.032 c -0.16,0.028 -0.255,0.192 -0.352,0.318 v 0.036 c 0.128,0.094 0.256,0.252 0.416,0.219 h 0.063 l 0.032,0.098 h -0.096 c -0.16,0 -0.288,0.16 -0.384,0.289 0.096,0.128 0.224,0.284 0.384,0.318 h 0.063 v 0.094 l -0.097,-0.029 c -0.127,0 -0.286,0.128 -0.414,0.224 v 0.032 c 0.095,0.125 0.191,0.289 0.319,0.352 h 0.095 l -0.031,0.093 -0.063,-0.029 c -0.16,-0.029 -0.319,0.097 -0.448,0.157 V 18.7 c 0.035,0.128 0.129,0.319 0.257,0.385 l 0.095,0.033 -0.031,0.063 -0.097,-0.032 c -0.127,-0.031 -0.319,0.032 -0.447,0.095 l -0.032,0.033 c 0.064,0.127 0.094,0.353 0.256,0.416 l 0.064,0.031 -0.064,0.097 -0.063,-0.063 c -0.128,-0.064 -0.32,0 -0.482,0.03 -0.254,0.449 -0.029,0.737 0.099,1.183 0.162,0.324 0.191,0.643 0.096,1.122 -0.16,0.577 0.128,1.279 0.768,1.374 -0.479,-1.021 0.353,-2.202 0.127,-3.005 -0.063,-0.576 0.191,-0.802 0.289,-1.185 1.57,-5.505 -4.124,-8.643 -7.584,-5.954 z m 2.531,6.497 v 0 h -0.036 l -0.028,0.032 H 15.202 L 15.17,19.723 h -0.032 l -0.029,-0.064 v -0.03 H 15.074 V 19.6 L 15.011,19.562 14.948,19.501 14.884,19.465 14.821,19.403 14.628,19.243 14.564,19.212 14.53,19.149 14.501,19.118 14.47,19.085 14.437,19.02 14.406,18.926 14.374,18.861 V 18.733 C 14.343,18.666 14.343,18.605 14.343,18.508 V 18.479 L 14.28,18.349 14.249,18.317 14.214,18.252 H 14.181 L 14.15,18.189 14.055,18.093 14.023,18.061 V 18.03 L 13.96,17.838 13.895,17.614 v -0.031 l -0.033,-0.065 -0.063,-0.097 -0.063,-0.063 v -0.031 l -0.032,-0.033 -0.096,-0.065 -0.193,-0.097 -0.03,-0.029 -0.161,-0.099 h -0.031 v -0.029 h -0.034 l -0.063,-0.063 -0.031,-0.034 h -0.032 v -0.026 h -0.031 v -0.036 h -0.033 l -0.033,-0.032 -0.063,-0.03 -0.097,-0.035 -0.063,-0.028 h -0.03 l -0.098,-0.034 h -0.19 l -0.031,0.034 H 12.33 l -0.03,0.028 h -0.032 l -0.033,0.035 -0.032,0.03 -0.03,0.032 -0.065,0.097 -0.029,0.063 -0.035,0.029 L 12,17.129 v 0.162 l 0.032,0.162 c 0,0.095 0.035,0.19 0.035,0.255 l 0.029,0.192 v 0.031 h -0.029 c 0,0.19 -0.067,0.353 -0.163,0.512 l -0.447,0.705 v 0.128 l 0.191,0.188 0.066,0.065 v 0.031 l 0.032,0.038 c 0.029,0.093 0.029,0.188 0.062,0.285 -0.032,0.224 -0.16,0.352 0.545,0.416 v 0.126 c -0.162,0 -0.387,-0.028 -0.513,0.034 l -0.032,0.031 v 0.064 l 0.032,0.063 0.063,0.128 v 0.257 L 11.872,21.1 c 0,0.031 -0.031,0.095 -0.031,0.163 v 0.061 l -0.032,0.063 v 0.064 l 0.032,0.029 v 0.034 h 0.031 v 0.032 l 0.032,0.032 0.032,0.032 h 0.031 L 12,21.643 h 0.032 l 0.13,0.066 0.158,0.031 c 0.575,0.159 1.153,0.095 1.729,-0.129 l 0.226,-0.131 0.126,-0.06 0.031,-0.034 0.033,-0.031 0.031,-0.032 0.063,-0.03 0.033,-0.03 c 0.066,-0.068 0.095,-0.1 0.128,-0.132 l 0.097,-0.19 0.033,-0.033 h 0.094 l 0.031,-0.066 V 20.748 L 14.944,20.62 v -0.352 l 0.031,-0.032 v -0.065 l 0.032,-0.03 0.034,-0.064 v -0.031 l 0.064,-0.036 0.094,-0.061 -0.032,0.097 z m -2.723,-1.284 v 0 h -0.03 C 12.355,18.411 12.418,18.315 12.418,18.122 L 12.32,17.996 c -0.063,-0.131 -0.063,-0.189 0,-0.353 0,-0.096 -0.224,-0.063 -0.188,-0.19 0.188,-0.162 0.541,-0.129 0.731,-0.064 l 0.161,0.095 c 0.191,0.129 0.32,0.254 0.383,0.48 v 0.064 h -0.03 c -0.128,-0.097 -0.258,-0.192 -0.353,-0.257 -0.13,-0.034 -0.13,-0.034 -0.13,0.094 0.099,0.131 0.354,0.227 0.354,0.45 l -0.064,0.032 c -0.256,-0.032 -0.382,0.16 -0.608,0.189 z m -0.639,0.901 v 0 c -0.095,-0.064 -0.189,-0.099 -0.189,-0.161 0.061,-0.159 0.51,0.225 0.189,0.161 z m 1.183,4.511 v 0 c -1.535,0.286 -3.075,1.953 -0.8,2.719 1.186,0.317 2.305,0.161 3.295,-0.351 0.067,-0.193 0.132,-0.355 0.26,-0.515 l -0.064,0.036 -0.256,0.092 c 0,-0.092 0.03,-0.188 0.03,-0.288 l 0.03,-0.094 c 0,-0.094 0.033,-0.19 0.098,-0.287 l 0.068,-0.068 V 25.13 l 0.188,-0.159 0.033,-0.03 0.035,-0.032 v -0.035 l -0.101,-0.063 -0.03,-0.03 -0.125,-0.191 c -0.58,0.989 -1.637,1.441 -2.661,1.441 -1.662,-0.036 -1.471,-1.413 0,-2.083 z m -2.015,4.637 v 0 c 1.185,0 1.185,0 2.75,-0.03 l 0.162,0.03 c 0.928,0 1.919,0 2.882,-0.03 1.15,0.03 2.337,0.03 3.518,0 V 27.147 C 19.97,27.114 19.97,27.114 19.236,27.114 l -0.384,0.033 c -0.515,0.031 -1.028,0 -1.508,0 h -0.128 c -0.317,0 -0.481,0 -0.863,0.031 -0.16,-0.031 -0.317,0 -0.448,0 h -0.737 c -0.224,-0.031 -0.447,-0.064 -0.672,0 -0.642,0 -1.28,-0.031 -1.855,-0.031 h -0.065 -2.334 v 1.438 z m -0.735,0.354 v 0 h 9.952 l -1.503,0.639 h -6.978 z m 8.224,1.986 v 0 0.447 c -0.193,0.062 -0.416,0.159 -0.642,0.222 v -0.832 c 0,-0.159 -0.128,-0.318 -0.256,-0.318 -0.159,0 -0.289,0.159 -0.289,0.318 v 0.993 c -0.19,0.035 -0.353,0.065 -0.544,0.095 v -1.024 c 0,-0.191 -0.127,-0.382 -0.318,-0.382 -0.191,0 -0.352,0.19 -0.352,0.382 v 1.118 c -0.157,0 -0.288,0 -0.447,0.039 v -1.157 c 0,-0.191 -0.192,-0.382 -0.385,-0.382 -0.226,0 -0.417,0.19 -0.417,0.382 v 1.157 c -0.127,0 -0.285,-0.039 -0.448,-0.039 v -1.118 c 0,-0.191 -0.128,-0.382 -0.321,-0.382 -0.188,0 -0.351,0.19 -0.351,0.382 v 1.059 c -0.161,-0.034 -0.352,-0.063 -0.546,-0.094 v -1.028 c 0,-0.159 -0.128,-0.318 -0.254,-0.318 -0.161,0 -0.289,0.159 -0.289,0.318 v 0.868 c -0.223,-0.065 -0.416,-0.164 -0.604,-0.258 v -1.438 h 6.461 v 0.99 z M 15.329,10.38 v 0 c -5.954,0 -10.816,4.96 -10.816,11.042 0,6.015 4.863,10.976 10.816,10.976 5.953,0 10.787,-4.961 10.787,-10.976 0,-6.082 -4.833,-11.042 -10.787,-11.042 z m -3.392,24.098 v 0 c 0.196,0.031 0.418,0.094 0.64,0.128 l 0.418,-0.928 1.407,0.19 0.192,1.024 c 0.479,0.03 0.961,0.03 1.443,0 l 0.19,-1.024 1.375,-0.19 0.478,0.928 c 0.45,-0.097 0.896,-0.228 1.346,-0.354 l -0.066,-1.058 1.282,-0.542 0.703,0.768 c 0.419,-0.194 0.833,-0.447 1.215,-0.703 l -0.351,-0.991 1.12,-0.867 0.865,0.574 c 0.351,-0.317 0.67,-0.672 0.991,-1.053 l -0.575,-0.834 0.864,-1.117 0.959,0.317 c 0.256,-0.417 0.512,-0.83 0.735,-1.248 l -0.797,-0.671 0.543,-1.343 1.021,0.063 c 0.162,-0.45 0.291,-0.93 0.386,-1.378 l -0.929,-0.445 0.19,-1.411 0.993,-0.188 c 0.034,-0.481 0.034,-0.993 0,-1.476 l -1.024,-0.157 -0.159,-1.408 0.929,-0.48 c -0.095,-0.481 -0.224,-0.96 -0.386,-1.407 l -1.021,0.095 -0.513,-1.312 0.736,-0.702 C 26.946,14.829 26.689,14.411 26.433,13.997 L 25.474,14.38 24.61,13.231 25.185,12.365 C 24.864,11.981 24.514,11.661 24.16,11.309 l -0.831,0.609 -1.12,-0.865 0.32,-0.992 C 22.145,9.804 21.729,9.546 21.313,9.325 L 20.673,10.126 19.36,9.578 19.426,8.522 C 18.976,8.363 18.499,8.235 18.05,8.138 L 17.603,9.101 16.228,8.906 16.002,7.883 c -0.479,-0.033 -0.93,-0.033 -1.408,0 L 14.402,8.906 12.995,9.101 12.547,8.138 C 12.098,8.266 11.618,8.394 11.171,8.522 L 11.267,9.578 9.954,10.124 9.284,9.323 C 8.837,9.545 8.451,9.802 8.035,10.059 L 8.389,11.051 7.3,11.916 6.433,11.34 C 6.08,11.659 5.727,12.012 5.408,12.363 L 6.017,13.229 5.152,14.347 4.16,14.028 C 3.906,14.444 3.68,14.86 3.457,15.277 l 0.767,0.672 -0.511,1.342 -1.057,-0.065 c -0.125,0.45 -0.256,0.896 -0.35,1.378 l 0.929,0.45 -0.192,1.407 -1.023,0.224 v 1.44 l 1.023,0.188 0.192,1.379 -0.929,0.478 c 0.094,0.482 0.225,0.928 0.35,1.407 l 1.023,-0.092 0.544,1.309 -0.767,0.705 c 0.223,0.449 0.479,0.864 0.736,1.248 l 0.959,-0.353 0.832,1.152 -0.543,0.865 c 0.32,0.35 0.64,0.704 0.992,1.021 l 0.833,-0.608 1.12,0.901 -0.321,0.991 c 0.384,0.256 0.799,0.509 1.247,0.733 l 0.64,-0.798 1.313,0.542 -0.064,1.058 c 0.228,0.065 0.481,0.161 0.737,0.227 z"
   id="path114"
   style="stroke-width:0.204119" />
			<path
   fill-rule="evenodd"
   clip-rule="evenodd"
   fill="#224584"
   d="M 11.748,29.994 9.826,29.161 C 9.698,29.063 9.698,28.875 9.795,28.682 9.858,28.522 9.888,28.329 9.888,28.105 l -0.03,-1.021 c -0.031,-0.193 0.063,-0.29 0.286,-0.29 l 0.866,0.034 c 0.256,0 0.352,-0.13 0.224,-0.351 -0.607,-0.8 -0.416,-1.441 0.288,-2.018 0.447,-0.354 1.055,-0.64 1.729,-0.896 0.128,0 0.158,-0.096 0.128,-0.222 -0.032,-0.258 -0.064,-0.483 -0.128,-0.674 V 22.635 C 13.218,22.476 13.187,22.348 13.121,22.22 13.09,22.154 13.058,22.09 13.058,22.026 H 12.802 L 12.674,21.997 H 12.546 L 12.418,21.962 12.32,21.933 12.193,21.9 h -0.06 L 12.068,21.869 12,21.836 11.937,21.806 11.873,21.772 11.81,21.742 11.778,21.709 11.749,21.679 11.717,21.645 11.683,21.614 11.651,21.55 v -0.284 l 0.066,-0.163 v -0.031 l 0.032,-0.125 V 20.751 L 11.717,20.72 11.683,20.653 11.651,20.624 v -0.193 h 0.032 v -0.03 l 0.034,-0.032 0.032,-0.031 V 20.306 H 11.717 V 20.27 h -0.034 v -0.028 h -0.032 v -0.065 l -0.032,-0.03 V 20.015 19.82 19.659 l -0.064,-0.06 C 11.492,19.53 11.431,19.464 11.364,19.437 l -0.031,-0.034 v -0.03 l -0.032,-0.034 -0.032,-0.03 V 19.18 l 0.032,-0.063 v -0.033 c 0.097,-0.129 0.191,-0.257 0.255,-0.385 0.064,-0.063 0.097,-0.128 0.129,-0.222 l 0.128,-0.162 0.063,-0.159 0.032,-0.064 V 18.03 l 0.032,-0.066 v -0.16 l -0.032,-0.032 v -0.096 c 0,-0.064 -0.032,-0.128 -0.032,-0.223 v -0.1 L 11.845,17.324 V 17.129 L 11.876,17.1 v -0.099 l 0.032,-0.06 V 16.908 L 11.94,16.874 11.971,16.811 12,16.779 12.032,16.714 12.067,16.651 V 16.588 L 12.032,16.557 12,16.461 V 16.396 L 11.968,16.333 V 16.012 L 12,15.979 v -0.063 l 0.032,-0.064 0.035,-0.032 0.029,-0.063 0.036,-0.064 0.125,-0.128 0.032,-0.095 V 15.116 L 12.257,15.02 v -0.098 l -0.033,-0.062 -0.032,-0.097 -0.06,-0.129 v -0.031 l -0.036,-0.065 v -0.063 l 0.036,-0.031 0.029,-0.034 h 0.03 l 0.032,-0.031 h 0.096 l 0.034,-0.031 h 0.063 c 0.096,0 0.256,0.031 0.384,0.063 0.287,0.065 0.544,0.128 0.606,0.128 0.225,0.097 0.354,-0.063 0.161,-0.32 -0.319,-0.445 -0.8,-0.605 -1.377,-0.733 3.171,-3.36 10.112,-0.608 8.482,5.854 l -0.162,0.546 c -0.095,0.191 -0.128,0.38 -0.158,0.578 l 0.03,1.149 -0.063,0.386 c -0.128,0.543 -0.224,1.211 -0.063,1.694 -0.385,0.094 -0.8,-0.128 -1.12,-0.483 -0.191,-0.253 -0.254,-0.605 -0.226,-0.987 0.063,-0.45 0.098,-0.834 -0.06,-1.121 -0.068,-0.192 -0.131,-0.353 -0.164,-0.576 -0.032,-0.128 -0.063,-0.26 -0.032,-0.416 -0.223,0.256 -0.479,0.479 -0.768,0.64 0.063,0.128 0.063,0.285 0.033,0.447 l 0.095,0.129 -0.032,0.128 c 0.193,0.029 0.287,0.448 0.287,0.733 0.194,0.192 0.322,0.483 0.385,0.868 0,0.317 0.128,0.415 0.319,0.477 0.866,0.994 1.089,1.924 0.738,2.849 -0.225,0.288 -0.157,0.449 0.128,0.449 h 0.735 c 0.19,0 0.256,0.094 0.256,0.285 v 1.441 l 0.064,0.224 c 0.063,0.161 0.034,0.285 -0.064,0.354 l -1.857,0.862 v 1.347 l 0.418,-0.161 0.448,-0.226 0.448,-0.223 0.444,-0.257 0.423,-0.287 0.414,-0.289 0.766,-0.64 0.351,-0.353 0.355,-0.384 0.318,-0.384 0.321,-0.415 0.286,-0.419 0.256,-0.414 0.256,-0.447 0.227,-0.448 0.225,-0.481 0.188,-0.478 0.164,-0.512 0.126,-0.482 0.128,-0.512 0.099,-0.512 0.061,-0.514 0.031,-0.542 L 25.759,21.42 25.726,20.876 25.695,20.333 25.634,19.787 25.535,19.276 25.407,18.762 25.281,18.249 25.117,17.736 24.929,17.258 24.704,16.81 24.477,16.331 24.221,15.882 23.965,15.467 23.679,15.048 23.358,14.633 23.04,14.249 22.689,13.9 22.338,13.514 21.954,13.195 21.572,12.876 21.158,12.587 20.735,12.299 20.291,12.041 19.843,11.819 19.395,11.595 18.914,11.403 18.435,11.244 17.923,11.083 17.408,10.988 16.898,10.89 16.387,10.825 15.874,10.762 h -1.089 l -0.51,0.063 -0.545,0.065 -0.513,0.098 -0.513,0.095 -0.479,0.161 -0.477,0.159 -0.482,0.192 -0.48,0.224 -0.447,0.222 -0.417,0.258 -0.444,0.288 -0.388,0.289 -0.419,0.319 -0.382,0.319 -0.353,0.386 -0.352,0.351 -0.318,0.384 -0.322,0.415 -0.287,0.419 -0.29,0.415 -0.223,0.449 -0.256,0.479 -0.191,0.448 -0.191,0.478 -0.16,0.513 -0.158,0.513 -0.1,0.514 -0.094,0.511 -0.064,0.544 -0.064,0.543 v 1.087 l 0.064,0.542 0.063,0.514 0.094,0.512 0.1,0.512 0.158,0.482 0.16,0.512 0.191,0.478 0.192,0.481 0.256,0.448 0.223,0.447 0.577,0.833 0.322,0.415 0.318,0.384 0.352,0.384 0.353,0.353 0.382,0.32 0.419,0.319 0.387,0.289 0.444,0.287 0.417,0.257 0.447,0.223 0.48,0.226 0.482,0.192 V 29.994 Z M 17.377,8.682 v 0 l 0.448,-0.961 c 0.675,0.128 1.346,0.321 1.985,0.545 l -0.064,1.057 0.801,0.352 0.671,-0.8 c 0.61,0.287 1.186,0.64 1.761,1.023 l -0.32,1.026 0.704,0.541 0.833,-0.606 c 0.513,0.414 0.991,0.926 1.442,1.474 l -0.58,0.862 0.546,0.737 0.959,-0.384 c 0.384,0.574 0.737,1.184 1.025,1.791 l -0.768,0.737 0.319,0.797 1.057,-0.095 c 0.222,0.64 0.417,1.313 0.545,2.017 l -0.96,0.48 0.126,0.895 1.025,0.193 c 0.064,0.669 0.064,1.377 0,2.049 l -1.025,0.224 -0.126,0.862 0.96,0.449 c -0.128,0.704 -0.323,1.375 -0.545,1.981 l -1.025,-0.028 -0.35,0.797 0.8,0.704 c -0.32,0.639 -0.673,1.251 -1.026,1.793 l -0.99,-0.353 -0.546,0.704 0.609,0.865 c -0.449,0.542 -0.928,1.054 -1.441,1.471 l -0.896,-0.575 -0.672,0.542 0.352,0.995 c -0.575,0.417 -1.152,0.767 -1.76,1.056 l -0.703,-0.799 -0.801,0.319 0.097,1.088 c -0.672,0.223 -1.312,0.415 -1.984,0.513 l -0.481,-0.962 -0.863,0.129 -0.159,1.056 c -0.706,0.063 -1.378,0.063 -2.048,0 L 14.084,34.187 13.219,34.089 12.772,35.05 C 12.099,34.922 11.46,34.73 10.819,34.507 L 10.884,33.419 10.083,33.1 9.376,33.9 C 8.772,33.611 8.193,33.261 7.617,32.875 l 0.35,-1.025 -0.7,-0.542 -0.866,0.607 C 5.889,31.466 5.408,30.954 4.963,30.443 L 5.536,29.547 5.024,28.843 4.031,29.196 C 3.649,28.621 3.297,28.042 3.009,27.434 L 3.809,26.699 3.456,25.87 2.434,25.964 C 2.208,25.324 2.019,24.653 1.888,23.98 L 2.817,23.501 2.72,22.636 1.695,22.444 c -0.064,-0.673 -0.064,-1.375 0,-2.08 L 2.72,20.171 2.817,19.276 1.888,18.827 C 2.019,18.156 2.176,17.483 2.4,16.811 L 3.457,16.874 3.81,16.077 3.01,15.372 C 3.298,14.764 3.619,14.156 4.003,13.579 L 5.025,13.933 5.537,13.229 4.964,12.333 C 5.378,11.819 5.856,11.34 6.402,10.859 l 0.866,0.606 0.7,-0.541 L 7.585,9.93 C 8.131,9.544 8.705,9.195 9.347,8.874 l 0.735,0.8 0.801,-0.352 -0.098,-1.057 C 11.429,8.041 12.097,7.848 12.739,7.72 l 0.479,0.993 0.865,-0.128 0.193,-1.057 c 0.67,-0.063 1.373,-0.063 2.047,0 l 0.191,1.057 z M 30.213,6.346 v 0 28.482 c 0,0.833 -0.674,1.504 -1.473,1.504 H 16.962 c -0.767,0 -1.471,0.609 -1.632,1.214 -0.158,-0.604 -0.928,-1.182 -1.632,-1.214 H 1.888 c -0.83,0 -1.502,-0.671 -1.502,-1.504 V 6.346 Z"
   id="path116"
   style="stroke-width:0.204119" />
			<path
   fill-rule="evenodd"
   clip-rule="evenodd"
   fill="#ffffff"
   d="m 30.213,34.829 c 0,0.833 -0.674,1.504 -1.473,1.504 H 16.962 c -0.767,0 -1.471,0.606 -1.632,1.214 -0.16,-0.607 -0.928,-1.182 -1.632,-1.214 H 1.888 c -0.83,0 -1.504,-0.671 -1.504,-1.504 V 6.346 H 30.213 Z M 0,5.961 v 0 28.868 c 0,1.055 0.833,1.92 1.855,1.92 h 11.747 c 0.959,0 1.407,0.703 1.728,1.694 0.354,-1.151 0.865,-1.694 1.664,-1.694 h 11.778 c 1.021,0 1.857,-0.865 1.857,-1.92 V 5.961 Z"
   id="path118"
   style="stroke-width:0.204119" />
			<path
   fill-rule="evenodd"
   clip-rule="evenodd"
   fill="#222220"
   d="m 11.937,34.478 c 0.196,0.03 0.418,0.094 0.64,0.128 l 0.418,-0.93 1.407,0.192 0.192,1.024 c 0.479,0.03 0.961,0.03 1.44,0 l 0.193,-1.024 1.375,-0.192 0.479,0.93 c 0.447,-0.098 0.895,-0.228 1.345,-0.354 l -0.066,-1.055 1.282,-0.549 0.703,0.771 c 0.419,-0.192 0.833,-0.447 1.217,-0.703 l -0.353,-0.991 1.12,-0.867 0.865,0.574 c 0.351,-0.317 0.67,-0.672 0.992,-1.053 l -0.576,-0.834 0.862,-1.117 0.961,0.317 c 0.256,-0.417 0.511,-0.83 0.735,-1.248 l -0.797,-0.671 0.543,-1.343 1.021,0.063 c 0.162,-0.45 0.291,-0.93 0.386,-1.378 l -0.927,-0.445 0.191,-1.411 0.99,-0.188 c 0.034,-0.481 0.034,-0.993 0,-1.476 l -1.024,-0.157 -0.157,-1.408 0.927,-0.48 c -0.095,-0.482 -0.224,-0.96 -0.386,-1.407 l -1.021,0.095 -0.513,-1.312 0.736,-0.702 C 26.945,14.828 26.689,14.41 26.433,13.996 l -0.961,0.383 -0.862,-1.15 0.576,-0.865 C 24.864,11.98 24.514,11.66 24.16,11.308 l -0.831,0.609 -1.12,-0.864 0.321,-0.993 C 22.145,9.803 21.729,9.545 21.313,9.324 L 20.673,10.125 19.36,9.578 19.426,8.522 C 18.976,8.363 18.497,8.235 18.05,8.136 L 17.603,9.101 16.228,8.906 16.002,7.883 c -0.479,-0.033 -0.93,-0.033 -1.408,0 L 14.402,8.906 12.995,9.101 12.547,8.136 c -0.449,0.13 -0.929,0.258 -1.376,0.386 L 11.267,9.578 9.954,10.124 9.284,9.323 C 8.835,9.545 8.451,9.802 8.035,10.059 L 8.389,11.052 7.3,11.916 6.433,11.34 C 6.08,11.659 5.729,12.012 5.408,12.363 L 6.017,13.228 5.152,14.347 4.16,14.028 C 3.906,14.444 3.68,14.86 3.457,15.277 L 4.224,15.949 3.713,17.291 2.656,17.228 C 2.531,17.676 2.4,18.122 2.306,18.604 l 0.929,0.45 -0.192,1.409 -1.023,0.222 v 1.44 l 1.023,0.188 0.192,1.379 -0.929,0.478 c 0.094,0.482 0.225,0.928 0.35,1.407 l 1.023,-0.092 0.544,1.309 -0.767,0.705 c 0.223,0.446 0.479,0.864 0.736,1.248 l 0.959,-0.353 0.834,1.152 -0.545,0.865 c 0.322,0.35 0.64,0.704 0.992,1.021 l 0.833,-0.607 1.12,0.9 -0.319,0.991 c 0.382,0.256 0.797,0.511 1.245,0.733 l 0.64,-0.802 1.313,0.549 -0.064,1.055 c 0.228,0.065 0.481,0.161 0.737,0.227 z m 6.656,-3.553 v 0 0.447 c -0.191,0.062 -0.414,0.159 -0.64,0.222 v -0.832 c 0,-0.157 -0.128,-0.318 -0.256,-0.318 -0.159,0 -0.289,0.161 -0.289,0.318 v 0.993 c -0.19,0.035 -0.353,0.065 -0.544,0.095 v -1.023 c 0,-0.192 -0.127,-0.383 -0.318,-0.383 -0.193,0 -0.352,0.19 -0.352,0.383 v 1.117 c -0.16,0 -0.29,0 -0.447,0.036 v -1.153 c 0,-0.192 -0.192,-0.383 -0.384,-0.383 -0.227,0 -0.418,0.19 -0.418,0.383 v 1.153 c -0.127,0 -0.286,-0.036 -0.448,-0.036 v -1.117 c 0,-0.192 -0.128,-0.383 -0.321,-0.383 -0.188,0 -0.354,0.19 -0.354,0.383 v 1.057 c -0.158,-0.033 -0.349,-0.063 -0.543,-0.093 v -1.028 c 0,-0.157 -0.127,-0.318 -0.251,-0.318 -0.164,0 -0.29,0.161 -0.29,0.318 v 0.868 C 12.513,31.566 12.32,31.467 12.133,31.373 V 29.93 h 6.459 v 0.995 z m -8.221,-1.986 v 0 h 9.95 l -1.503,0.64 h -6.978 z m 0.733,-0.354 v 0 h -0.863 v -1.438 h 2.334 0.065 c 0.576,0 1.214,0.031 1.855,0.031 0.225,-0.064 0.448,-0.031 0.674,0 h 0.733 c 0.13,0 0.29,-0.031 0.448,0 0.384,-0.031 0.545,-0.031 0.865,-0.031 h 0.128 c 0.479,0 0.993,0.031 1.508,0 l 0.384,-0.033 c 0.733,0 0.733,0 1.182,0.033 v 1.408 c -1.182,0.03 -2.368,0.03 -3.521,0 -0.961,0.03 -1.953,0.03 -2.88,0.03 l -0.162,-0.03 c -1.565,0.03 -1.565,0.03 -2.75,0.03 z m 2.017,-4.637 v 0 c -1.473,0.67 -1.665,2.047 0,2.081 1.022,0 2.083,-0.452 2.656,-1.441 l 0.126,0.191 0.032,0.03 0.098,0.063 v 0.035 l -0.032,0.032 -0.033,0.03 -0.19,0.159 v 0.063 l -0.065,0.065 c -0.063,0.1 -0.095,0.196 -0.095,0.29 l -0.03,0.094 c 0,0.1 -0.033,0.196 -0.033,0.288 l 0.256,-0.092 0.063,-0.036 c -0.127,0.161 -0.191,0.321 -0.256,0.515 -0.993,0.512 -2.113,0.668 -3.298,0.351 -2.275,-0.765 -0.735,-2.432 0.801,-2.718 z m 0.192,0.094 v 0 l 0.064,-0.032 0.096,0.16 c 0.318,-0.605 -0.128,-1.503 -0.288,-2.143 0.703,-0.094 1.216,-0.319 1.729,-0.832 0.094,0.068 0.094,0.129 0.128,0.227 -0.066,0.319 -0.162,0.605 -0.162,0.956 0.034,0.511 0.642,1.219 0.576,1.57 -0.701,2.368 -4.925,2.081 -2.143,0.094 z m -1.377,-4.605 v 0 c -0.095,-0.064 -0.189,-0.099 -0.189,-0.161 0.061,-0.159 0.51,0.225 0.189,0.161 z m 0.639,-0.9 v 0 h -0.03 C 12.355,18.411 12.418,18.315 12.418,18.121 L 12.32,17.996 c -0.063,-0.131 -0.063,-0.192 0,-0.353 0,-0.096 -0.224,-0.063 -0.188,-0.19 0.188,-0.162 0.541,-0.129 0.731,-0.064 l 0.164,0.095 c 0.189,0.129 0.317,0.254 0.38,0.48 v 0.066 h -0.03 c -0.128,-0.099 -0.256,-0.197 -0.35,-0.259 -0.131,-0.034 -0.131,-0.034 -0.131,0.094 0.097,0.131 0.353,0.227 0.353,0.45 l -0.064,0.032 c -0.257,-0.032 -0.383,0.162 -0.609,0.19 z m 2.723,1.283 v 0 l -0.128,0.223 0.034,-0.095 -0.098,0.061 -0.064,0.034 v 0.033 l -0.034,0.064 -0.032,0.03 v 0.065 l -0.031,0.032 v 0.352 l 0.031,0.128 v 0.097 l -0.031,0.063 h -0.094 l -0.033,0.033 -0.097,0.19 c -0.033,0.032 -0.063,0.063 -0.128,0.132 l -0.033,0.028 -0.063,0.032 -0.031,0.032 -0.033,0.031 -0.031,0.034 -0.126,0.06 -0.226,0.131 c -0.576,0.224 -1.152,0.288 -1.729,0.129 l -0.158,-0.033 -0.13,-0.064 H 12 L 11.968,21.611 H 11.937 L 11.905,21.579 11.873,21.547 V 21.515 H 11.842 V 21.481 L 11.81,21.452 v -0.064 l 0.032,-0.063 v -0.061 c 0,-0.068 0.031,-0.132 0.031,-0.163 l 0.032,-0.096 V 20.748 L 11.842,20.62 11.81,20.557 v -0.064 l 0.032,-0.029 c 0.126,-0.066 0.351,-0.036 0.513,-0.036 V 20.302 C 11.649,20.238 11.777,20.11 11.81,19.886 11.778,19.788 11.778,19.694 11.748,19.601 L 11.716,19.563 V 19.53 L 11.65,19.465 11.459,19.277 v -0.128 l 0.447,-0.705 c 0.096,-0.159 0.163,-0.322 0.163,-0.512 h 0.029 V 17.9 l -0.029,-0.191 c 0,-0.064 -0.035,-0.16 -0.035,-0.255 L 12,17.291 v -0.162 l 0.032,-0.128 0.035,-0.029 0.029,-0.063 0.065,-0.097 0.03,-0.032 0.032,-0.03 0.033,-0.035 h 0.032 l 0.03,-0.028 h 0.034 l 0.031,-0.034 h 0.19 l 0.098,0.034 h 0.03 l 0.063,0.028 0.097,0.035 0.063,0.03 0.033,0.032 h 0.033 v 0.036 h 0.034 v 0.026 h 0.03 l 0.03,0.034 0.063,0.063 H 13.18 V 17 h 0.032 l 0.16,0.099 0.03,0.029 0.192,0.099 0.097,0.063 0.032,0.033 v 0.029 l 0.063,0.065 0.063,0.097 0.033,0.065 v 0.031 l 0.065,0.221 0.063,0.197 v 0.029 l 0.032,0.032 0.095,0.096 0.031,0.063 h 0.033 l 0.032,0.065 0.034,0.032 0.063,0.13 v 0.031 c 0,0.095 0,0.156 0.031,0.223 v 0.128 l 0.032,0.065 0.031,0.094 0.033,0.065 0.031,0.033 0.029,0.031 0.034,0.063 0.064,0.031 0.193,0.16 0.063,0.062 0.064,0.036 0.063,0.061 0.063,0.038 v 0.029 h 0.035 v 0.03 l 0.029,0.064 h 0.034 l 0.034,0.128 h 0.029 l 0.028,-0.031 h 0.049 z m -2.881,-5.185 v 0 c 1.632,0 3.551,1.793 4.256,3.937 -0.193,0.032 -0.321,0.094 -0.416,0.225 -0.384,-0.832 -0.865,-1.568 -1.406,-2.175 l -0.033,0.128 c 0.033,0.099 0.127,0.223 0.289,0.38 0.127,0.099 0.191,0.225 0.285,0.354 -0.094,0 -0.188,0 -0.222,-0.03 v 0.128 c -0.128,-0.098 -0.226,-0.192 -0.29,-0.29 0,0.128 0.064,0.257 0.191,0.353 0.162,0.128 0.32,0.222 0.482,0.32 l 0.128,0.157 c -0.192,0.066 -0.16,0.163 0.03,0.322 l 0.065,0.034 c -0.096,0.031 -0.128,0.254 -0.096,0.382 0.064,0.096 0.128,0.194 0.158,0.321 l 0.063,-0.193 0.161,-0.032 0.064,0.099 c -0.128,0.189 0,0.508 0.098,0.605 -0.193,0.289 -0.226,0.609 -0.226,0.865 -0.224,-0.224 -0.319,-0.737 -0.255,-1.023 0,-0.063 -0.034,-0.063 -0.129,-0.036 -0.096,0 -0.128,-0.062 -0.128,-0.188 -0.033,-0.096 -0.161,-0.033 -0.127,0.063 l 0.029,0.034 0.13,0.188 v 0.098 h -0.13 c -0.063,-0.098 -0.13,-0.222 -0.158,-0.222 l -0.063,-0.064 -0.162,-0.13 -0.157,-0.126 v -0.063 c 0.029,-0.161 -0.066,-0.291 -0.192,-0.389 l -0.065,-0.062 -0.033,-0.032 c 0.099,-0.094 0.258,-0.128 0.354,-0.034 0.094,0.1 0.157,0.226 0.192,0.418 0.127,-0.159 0.098,-0.352 -0.064,-0.478 -0.162,0 -0.287,-0.034 -0.354,-0.066 -0.095,-0.096 -0.029,-0.224 0.097,-0.194 0.191,0.099 0.13,-0.157 -0.063,-0.157 l -0.195,0.032 c -0.125,0.029 -0.251,0 -0.317,-0.096 0.098,-0.064 0.129,-0.163 0.032,-0.225 -0.253,-0.19 -0.128,-0.383 0.097,-0.353 l 0.188,0.097 c 0.099,0.065 0.133,-0.032 0.034,-0.097 -0.063,-0.065 -0.159,-0.128 -0.254,-0.159 l -0.098,-0.16 c -0.096,0.097 -0.191,0.128 -0.32,0.128 -0.191,-0.031 -0.127,-0.227 0.065,-0.227 0.096,0 0.063,-0.06 0,-0.06 -0.099,0.03 -0.162,0.06 -0.225,0.094 -0.097,0 -0.193,-0.034 -0.256,-0.127 C 13.44,16.812 13.44,16.715 13.44,16.622 l 0.128,-0.063 c -0.096,-0.097 -0.256,-0.097 -0.48,-0.064 h -0.161 c 0.066,-0.16 0.161,-0.29 0.352,-0.29 -0.19,-0.063 -0.352,-0.063 -0.478,0.063 -0.193,-0.063 -0.354,0 -0.447,0.161 h -0.097 c -0.161,-0.448 0,-0.672 0.351,-0.736 -0.063,0.192 0,0.288 0.193,0.192 l 0.257,-0.032 0.127,0.098 c 0.064,0.03 0.128,0.063 0.223,0.063 l 0.447,0.065 0.064,0.126 0.098,0.063 h 0.096 c 0,0.194 0.128,0.291 0.319,0.291 -0.063,0.254 0.064,0.384 0.256,0.414 L 14.625,16.75 v -0.321 c -0.671,-0.639 -1.375,-0.959 -2.111,-0.99 0,-0.324 -0.031,-0.579 -0.096,-0.804 z m 4.514,3.968 v 0 L 16.864,18.411 16.771,18.121 16.643,17.833 16.514,17.581 16.387,17.324 16.258,17.066 16.1,16.811 15.937,16.588 15.779,16.364 15.619,16.171 15.428,15.948 15.236,15.755 15.074,15.595 14.883,15.437 14.691,15.277 14.5,15.115 14.278,14.987 14.085,14.86 13.923,14.794 c 4.387,-1.471 6.848,4.29 3.425,5.763 l -0.032,-0.256 -0.031,-0.353 -0.064,-0.319 c 0.096,-0.128 0.128,-0.256 0.128,-0.417 -0.004,-0.287 -0.161,-0.513 -0.417,-0.609 z m -3.234,-4.739 v 0 c 3.807,-1.438 7.105,2.052 5.345,5.061 v -0.032 l 0.096,-0.289 0.032,-0.319 v -0.288 l -0.032,-0.32 -0.063,-0.322 -0.064,-0.287 -0.098,-0.287 -0.128,-0.318 -0.159,-0.258 -0.191,-0.287 -0.192,-0.255 -0.222,-0.256 -0.259,-0.225 -0.257,-0.193 -0.287,-0.193 -0.285,-0.159 -0.354,-0.128 -0.32,-0.097 -0.354,-0.063 -0.382,-0.031 h -0.386 l -0.415,0.031 -0.415,0.097 -0.418,0.125 c 0.03,-0.096 -0.034,-0.415 -0.192,-0.707 z m -0.93,-0.541 v 0 c 3.46,-2.689 9.154,0.449 7.586,5.953 -0.096,0.383 -0.353,0.608 -0.289,1.187 0.228,0.801 -0.606,1.981 -0.127,3.006 -0.64,-0.098 -0.928,-0.802 -0.768,-1.377 0.096,-0.479 0.066,-0.8 -0.096,-1.122 -0.128,-0.445 -0.354,-0.733 -0.099,-1.183 0.162,-0.03 0.354,-0.095 0.482,-0.03 l 0.063,0.063 0.064,-0.097 -0.064,-0.031 c -0.162,-0.063 -0.191,-0.289 -0.256,-0.416 l 0.032,-0.033 c 0.128,-0.063 0.32,-0.126 0.447,-0.095 l 0.097,0.032 0.031,-0.063 -0.095,-0.033 c -0.128,-0.065 -0.222,-0.257 -0.257,-0.385 v -0.034 c 0.129,-0.062 0.288,-0.188 0.448,-0.156 l 0.064,0.028 0.03,-0.094 H 19.97 C 19.842,18.38 19.745,18.216 19.651,18.091 v -0.032 c 0.128,-0.096 0.287,-0.227 0.414,-0.227 l 0.097,0.032 V 17.77 h -0.063 c -0.16,-0.034 -0.288,-0.19 -0.384,-0.318 0.096,-0.129 0.224,-0.289 0.384,-0.289 h 0.096 L 20.163,17.065 H 20.1 C 19.94,17.098 19.812,16.94 19.684,16.846 V 16.81 c 0.097,-0.126 0.191,-0.29 0.353,-0.318 L 20.1,16.46 v -0.096 l -0.097,0.03 C 19.844,16.426 19.684,16.3 19.559,16.236 v -0.034 c 0.062,-0.126 0.157,-0.319 0.285,-0.384 l 0.064,-0.03 -0.033,-0.063 -0.063,0.029 c -0.159,0.033 -0.32,-0.064 -0.479,-0.128 0.063,-0.128 0.096,-0.351 0.227,-0.416 l 0.094,-0.031 -0.064,-0.095 -0.064,0.029 c -0.128,0.097 -0.321,0.035 -0.479,0 0.032,-0.159 0.032,-0.383 0.158,-0.48 l 0.065,-0.031 -0.065,-0.097 -0.063,0.063 c -0.128,0.099 -0.319,0.065 -0.481,0.065 0,-0.159 -0.031,-0.384 0.097,-0.479 v -0.031 l 0.031,-0.031 -0.064,-0.065 -0.031,0.065 c -0.126,0.092 -0.32,0.092 -0.479,0.124 v -0.032 c -0.031,-0.125 -0.062,-0.351 0,-0.479 l 0.063,-0.063 -0.063,-0.032 -0.062,0.063 c -0.098,0.128 -0.29,0.159 -0.417,0.188 h -0.034 c -0.03,-0.157 -0.128,-0.35 -0.063,-0.476 v -0.032 l 0.033,-0.063 -0.063,-0.034 -0.034,0.064 c -0.064,0.161 -0.256,0.226 -0.415,0.256 -0.064,-0.128 -0.161,-0.32 -0.13,-0.448 L 17.061,13.034 16.967,13 16.938,13.095 c -0.034,0.161 -0.226,0.259 -0.354,0.323 -0.098,-0.128 -0.226,-0.29 -0.191,-0.45 v -0.095 h -0.099 v 0.063 c -0.03,0.158 -0.188,0.289 -0.319,0.384 -0.095,-0.128 -0.256,-0.257 -0.256,-0.416 V 12.81 h -0.063 l -0.032,0.097 c 0,0.159 -0.128,0.288 -0.255,0.386 -0.101,-0.098 -0.291,-0.227 -0.291,-0.386 v -0.063 h -0.096 v 0.095 c 0.032,0.158 -0.125,0.319 -0.221,0.417 -0.131,-0.063 -0.29,-0.193 -0.323,-0.319 v -0.034 l -0.031,-0.063 -0.095,0.031 0.031,0.066 c 0.031,0.158 -0.097,0.319 -0.162,0.447 -0.126,-0.063 -0.32,-0.161 -0.384,-0.289 l -0.03,-0.098 -0.064,0.033 0.032,0.098 c 0.032,0.128 -0.065,0.32 -0.129,0.447 l -0.031,-0.031 c -0.101,-0.13 -0.453,-0.256 -0.807,-0.321 z m 3.011,10.207 v 0 c 0.287,0.066 0.51,0.227 0.735,0.546 L 16.353,23.884 C 16.258,23.821 16.1,23.786 15.937,23.786 Z m 0.449,-1.853 v 0 l -0.193,-0.226 c -0.224,0.289 -0.256,0.609 -0.065,0.926 -0.064,0.322 0,0.547 0.191,0.581 L 16.13,22.7 l 0.128,0.188 c 0.03,0.099 0.063,0.07 0.095,-0.029 0.063,-0.223 -0.031,-0.481 -0.192,-0.734 h 0.128 l 0.033,-0.289 0.513,0.447 c 0.511,0.13 0.927,0.545 0.833,0.96 -0.259,-0.543 -1.409,-1.021 -0.93,-0.158 0.196,0.224 0.452,0.352 0.801,0.384 -0.13,-0.063 -0.192,-0.126 -0.225,-0.226 0.609,0.226 0.929,0.514 0.835,0.863 -0.259,-0.286 -0.451,0.031 -0.226,0.224 0.159,0.032 0.287,0.13 0.351,0.258 0.225,0.448 0.48,0.866 0.833,0.866 -0.031,-0.16 -0.063,-0.262 -0.193,-0.356 C 18.786,25.036 18.69,24.941 18.658,24.78 18.627,24.685 18.564,24.589 18.499,24.558 18.436,24.33 18.37,24.17 18.34,24.107 V 24.01 l -0.16,-0.189 v -0.128 l 0.031,-0.065 c 0.225,0.159 0.383,0.321 0.354,0.674 -0.034,0.095 -0.034,0.159 0.029,0.257 l 0.161,-0.067 c -0.033,-0.095 -0.033,-0.189 0.065,-0.256 l -0.065,-0.128 c -0.128,-0.576 -0.415,-0.863 -0.801,-1.088 -0.095,-0.06 -0.063,-0.13 0.033,-0.13 0.224,-0.061 0.415,0.07 0.577,0.454 0.19,0.094 0.29,0.188 0.256,0.284 0.034,0.159 0.094,0.321 0.191,0.479 0,0.162 0.032,0.289 0.096,0.451 l -0.031,0.284 c 0.063,0.386 0.415,0.322 0.319,-0.063 -0.096,-0.161 -0.096,-0.289 -0.096,-0.384 0.259,0.354 0.353,0.769 0.353,1.314 -0.064,0.701 -0.45,0.733 -0.291,0.253 L 19.46,25.61 c -0.032,-0.034 -0.128,0.066 -0.258,0.258 l 0.036,0.414 c 0.029,0.511 -0.324,0.511 -0.29,0 l 0.029,-0.605 c -0.029,-0.287 -0.319,-0.224 -0.256,0.063 -0.223,-0.1 -0.382,-0.351 -0.413,-0.801 h -0.034 c -0.191,0.383 -0.191,0.637 0,0.737 l 0.447,0.317 c 0.133,0.128 0.064,0.224 -0.128,0.128 0.384,1.182 -0.798,0.799 -0.703,0.032 -0.095,-0.064 -0.192,-0.096 -0.286,-0.032 0.128,0.096 0.158,0.193 0.128,0.288 -0.418,-0.064 -0.61,-1.021 -0.289,-1.281 -0.16,-0.094 -0.254,-0.189 -0.288,-0.351 -0.033,-0.255 -0.32,-0.384 -0.511,-0.545 0.191,0.256 0.381,0.515 0.575,0.802 0.064,0.191 0.032,0.382 -0.097,0.575 -0.128,0.29 0.033,0.672 0.384,0.96 -0.223,0.287 -1.247,0.351 -0.926,-0.192 0.032,-0.128 0.128,-0.288 0.286,-0.416 l 0.129,-0.352 -0.031,-0.034 c -0.098,0.261 -0.191,0.452 -0.351,0.546 -0.194,0.16 -0.289,0.354 -0.289,0.544 -0.511,0.191 -0.799,0.161 -0.895,-0.035 l 0.256,-0.094 c 0.064,-0.287 0.222,-0.575 0.575,-0.828 0.223,-0.162 0.385,-0.387 0.513,-0.643 -0.29,-0.383 -0.513,-0.737 -0.671,-1.153 -0.098,0.034 -0.131,0.096 -0.098,0.256 0.098,0.226 0.226,0.448 0.351,0.672 0.128,0.288 -0.095,0.576 -0.384,0.612 -0.095,0.188 -0.222,0.287 -0.318,0.319 0,-0.226 0.097,-0.383 0.254,-0.581 0.098,-0.063 0.226,-0.188 0.323,-0.351 l -0.033,-0.125 c -0.447,-0.192 -0.672,-0.833 -0.64,-1.248 l -0.032,-0.319 c -0.065,-0.032 -0.159,0 -0.224,0.094 -0.094,-0.284 -0.162,-0.606 -0.064,-0.989 0.028,-0.162 0.223,-0.448 0.095,-1.09 -0.03,-0.223 0,-0.447 0,-0.576 -0.863,-0.479 0.384,-1.439 0.259,-0.191 0.378,0.193 0.509,0.705 0.637,1.282 z m 1.533,0.031 v 0 c 0.607,0.063 0.289,1.377 -0.257,0.575 0.033,-0.098 0.033,-0.128 0.099,-0.158 0,0.188 0.286,0.253 0.35,0 0.129,-0.354 -0.576,-0.609 -0.671,0.129 -0.671,-0.162 -1.377,-1.537 -0.895,-2.434 -0.034,0.097 0.224,1.921 1.28,1.857 0,-0.13 0.03,-0.354 -0.129,-0.386 -0.096,0.032 -0.096,0.032 -0.13,0.13 -0.19,-0.158 0.067,-0.452 0.226,-0.353 0.191,0.064 0.255,0.256 0.127,0.64 z m -1.024,-2.946 v 0 c 0.225,0 0.417,0.192 0.417,0.449 0,0.253 -0.192,0.447 -0.417,0.447 -0.256,0 -0.448,-0.194 -0.448,-0.447 -0.001,-0.256 0.192,-0.449 0.448,-0.449 z m 0,0.256 v 0 c 0.098,0 0.196,0.065 0.196,0.193 0,0.127 -0.098,0.226 -0.196,0.226 -0.126,0 -0.223,-0.099 -0.223,-0.226 0,-0.127 0.097,-0.193 0.223,-0.193 z m 0.256,0.769 v 0 c 0.063,0.289 0.097,0.577 0.128,0.862 l -0.319,0.133 C 16.737,20.463 16.674,20.14 16.611,19.851 h 0.126 c 0.097,0 0.161,0 0.256,-0.064 z m -5.245,10.207 v 0 1.378 L 11.266,31.18 10.786,30.954 10.339,30.731 9.922,30.474 9.478,30.187 9.09,29.898 8.671,29.579 8.289,29.259 7.936,28.906 7.584,28.522 7.266,28.138 6.944,27.723 6.367,26.89 6.144,26.443 5.888,25.995 5.696,25.514 5.505,25.036 5.345,24.524 5.187,24.042 5.087,23.53 4.992,23.018 4.93,22.505 4.866,21.963 v -1.087 l 0.064,-0.543 0.063,-0.546 0.095,-0.511 0.1,-0.514 0.158,-0.513 0.16,-0.513 0.191,-0.478 0.192,-0.448 0.256,-0.479 0.223,-0.449 0.286,-0.415 0.291,-0.419 0.322,-0.415 0.318,-0.384 0.352,-0.353 0.353,-0.384 0.382,-0.319 0.419,-0.319 0.387,-0.289 0.444,-0.288 0.417,-0.258 0.447,-0.222 0.48,-0.224 0.482,-0.192 0.477,-0.159 0.479,-0.161 0.514,-0.095 0.512,-0.098 0.546,-0.065 0.51,-0.063 h 1.089 l 0.513,0.063 0.511,0.065 0.51,0.098 0.515,0.095 0.512,0.161 0.479,0.159 0.481,0.192 0.448,0.224 0.45,0.222 0.445,0.258 0.42,0.288 0.414,0.289 0.382,0.319 0.384,0.319 0.351,0.384 0.355,0.353 0.318,0.384 0.321,0.415 0.286,0.419 0.256,0.415 0.256,0.449 0.227,0.479 0.225,0.448 0.19,0.478 0.162,0.513 0.126,0.513 0.128,0.514 0.096,0.511 0.063,0.546 0.031,0.543 0.033,0.546 -0.033,0.541 -0.031,0.542 -0.063,0.514 -0.096,0.512 -0.128,0.512 -0.126,0.482 -0.162,0.512 -0.19,0.478 -0.225,0.481 -0.227,0.448 -0.256,0.447 -0.256,0.414 -0.286,0.419 -0.321,0.415 -0.318,0.384 -0.355,0.384 -0.351,0.353 -0.766,0.64 -0.414,0.289 -0.42,0.287 -0.445,0.257 -0.45,0.223 -0.448,0.226 -0.418,0.161 v -1.347 l 1.857,-0.862 c 0.099,-0.068 0.128,-0.192 0.064,-0.354 l -0.064,-0.224 v -1.441 c 0,-0.191 -0.065,-0.285 -0.256,-0.285 h -0.735 c -0.285,0 -0.353,-0.161 -0.128,-0.449 0.351,-0.925 0.128,-1.854 -0.738,-2.849 -0.191,-0.062 -0.319,-0.159 -0.319,-0.477 -0.064,-0.387 -0.19,-0.676 -0.384,-0.868 0,-0.285 -0.095,-0.704 -0.287,-0.733 l 0.034,-0.128 -0.098,-0.129 c 0.03,-0.162 0.03,-0.319 -0.033,-0.447 0.289,-0.16 0.545,-0.384 0.768,-0.64 -0.031,0.16 0,0.288 0.032,0.416 0.031,0.224 0.096,0.384 0.164,0.576 0.157,0.287 0.123,0.671 0.06,1.121 -0.028,0.382 0.034,0.737 0.226,0.987 0.32,0.355 0.735,0.577 1.12,0.483 -0.16,-0.483 -0.064,-1.151 0.063,-1.694 l 0.064,-0.386 -0.032,-1.149 c 0.032,-0.194 0.064,-0.387 0.16,-0.578 l 0.16,-0.546 c 1.63,-6.463 -5.311,-9.215 -8.482,-5.854 0.575,0.128 1.058,0.288 1.377,0.733 0.192,0.258 0.063,0.417 -0.161,0.32 -0.063,0 -0.319,-0.063 -0.606,-0.128 -0.128,-0.031 -0.288,-0.063 -0.384,-0.063 h -0.063 l -0.034,0.031 h -0.096 l -0.032,0.031 h -0.03 l -0.029,0.034 -0.036,0.031 v 0.063 l 0.036,0.065 v 0.031 l 0.06,0.129 0.032,0.097 0.033,0.062 v 0.098 l 0.032,0.096 V 15.47 L 12.261,15.565 12.136,15.693 12.1,15.757 12.071,15.82 12.036,15.852 12,15.916 v 0.063 l -0.032,0.032 v 0.321 L 12,16.395 v 0.065 l 0.032,0.097 0.035,0.031 v 0.063 l -0.035,0.063 -0.032,0.065 -0.032,0.032 -0.031,0.063 -0.032,0.034 v 0.033 l -0.032,0.06 V 17.1 l -0.031,0.029 v 0.195 l 0.031,0.029 v 0.1 c 0,0.095 0.032,0.159 0.032,0.223 v 0.096 l 0.032,0.032 v 0.16 l -0.032,0.066 v 0.062 l -0.032,0.064 -0.063,0.159 -0.128,0.162 c -0.032,0.094 -0.064,0.159 -0.129,0.222 -0.063,0.128 -0.159,0.256 -0.255,0.385 v 0.033 l -0.032,0.063 v 0.128 l 0.032,0.03 0.032,0.034 v 0.03 l 0.031,0.034 c 0.067,0.027 0.128,0.093 0.191,0.162 l 0.064,0.06 v 0.161 0.188 0.132 l 0.032,0.03 v 0.065 h 0.032 v 0.032 h 0.034 v 0.032 h 0.032 v 0.032 l -0.032,0.031 -0.034,0.032 v 0.03 h -0.032 v 0.193 l 0.032,0.029 0.034,0.067 0.032,0.031 v 0.193 l -0.032,0.128 V 21.1 l -0.066,0.163 v 0.284 l 0.032,0.064 0.034,0.031 0.032,0.034 0.029,0.03 0.032,0.033 0.063,0.03 0.064,0.034 0.066,0.033 0.067,0.033 0.065,0.031 h 0.06 l 0.128,0.033 0.098,0.029 0.128,0.035 h 0.128 l 0.128,0.029 h 0.257 c 0,0.064 0.03,0.128 0.063,0.194 0.063,0.128 0.096,0.256 0.128,0.415 v 0.03 c 0.063,0.192 0.096,0.418 0.128,0.676 0.03,0.126 0,0.222 -0.128,0.222 -0.674,0.256 -1.282,0.542 -1.732,0.896 -0.699,0.576 -0.893,1.218 -0.285,2.018 0.128,0.221 0.032,0.351 -0.224,0.351 l -0.866,-0.034 c -0.223,0 -0.317,0.097 -0.286,0.29 l 0.03,1.021 c 0,0.225 -0.03,0.417 -0.093,0.577 -0.099,0.192 -0.099,0.381 0.031,0.479 z M 15.329,10.38 v 0 c 5.954,0 10.787,4.96 10.787,11.042 0,6.012 -4.833,10.974 -10.787,10.974 -5.954,0 -10.816,-4.963 -10.816,-10.974 0,-6.082 4.863,-11.042 10.816,-11.042 z m 2.048,-1.698 v 0 l 0.448,-0.961 c 0.673,0.128 1.346,0.321 1.985,0.545 l -0.064,1.057 0.801,0.352 0.671,-0.8 c 0.61,0.287 1.186,0.64 1.761,1.023 l -0.32,1.026 0.704,0.541 0.833,-0.606 c 0.513,0.414 0.992,0.926 1.439,1.474 l -0.577,0.862 0.546,0.736 0.959,-0.383 c 0.383,0.576 0.737,1.184 1.025,1.791 l -0.768,0.737 0.319,0.797 1.057,-0.095 c 0.222,0.64 0.417,1.313 0.545,2.017 l -0.96,0.48 0.126,0.895 1.025,0.193 c 0.064,0.669 0.064,1.377 0,2.049 l -1.025,0.224 -0.126,0.862 0.96,0.449 c -0.128,0.704 -0.323,1.375 -0.545,1.981 l -1.025,-0.028 -0.35,0.797 0.8,0.704 c -0.32,0.639 -0.674,1.251 -1.026,1.793 l -0.99,-0.353 -0.546,0.704 0.609,0.865 c -0.447,0.542 -0.93,1.054 -1.441,1.471 l -0.896,-0.575 -0.672,0.542 0.352,0.995 c -0.575,0.417 -1.152,0.767 -1.76,1.056 l -0.703,-0.799 -0.801,0.319 0.097,1.088 c -0.672,0.223 -1.313,0.415 -1.984,0.511 l -0.481,-0.96 -0.863,0.129 -0.161,1.056 c -0.702,0.063 -1.376,0.063 -2.046,0 L 14.084,34.187 13.22,34.089 12.77,35.05 C 12.099,34.922 11.46,34.73 10.821,34.507 L 10.884,33.419 10.083,33.1 9.376,33.9 C 8.771,33.611 8.195,33.261 7.617,32.875 l 0.35,-1.025 -0.7,-0.542 -0.866,0.607 C 5.889,31.466 5.408,30.954 4.963,30.443 L 5.536,29.547 5.024,28.843 4.031,29.196 C 3.649,28.621 3.297,28.042 3.009,27.434 L 3.809,26.699 3.456,25.87 2.434,25.964 C 2.208,25.324 2.019,24.653 1.888,23.98 L 2.817,23.501 2.72,22.636 1.695,22.444 c -0.064,-0.673 -0.064,-1.375 0,-2.08 L 2.72,20.171 2.817,19.276 1.888,18.827 C 2.019,18.156 2.176,17.483 2.4,16.811 L 3.457,16.874 3.81,16.077 3.01,15.372 C 3.298,14.764 3.619,14.156 4.003,13.579 L 5.025,13.932 5.537,13.229 4.964,12.333 C 5.378,11.819 5.856,11.34 6.402,10.859 l 0.866,0.606 0.7,-0.541 L 7.585,9.93 C 8.131,9.544 8.705,9.195 9.347,8.874 l 0.735,0.8 0.801,-0.352 -0.098,-1.057 C 11.429,8.041 12.097,7.848 12.739,7.72 l 0.479,0.993 0.864,-0.128 0.193,-1.057 c 0.67,-0.063 1.375,-0.063 2.046,0 l 0.192,1.057 z"
   id="path120"
   style="stroke-width:0.204119" />
		</g>
	</g>

</svg>
